<svg xmlns="http://www.w3.org/2000/svg" viewBox="0 0 256 256" role="img" aria-label="Accord">
  <polygon fill="#5867e8" points="128,14 228,72 228,168 180,198 164,236 128,214 92,236 76,198 28,168 28,72" />
  <polygon fill="#101525" points="128,44 198,86 198,158 158,184 146,208 128,196 110,208 98,184 58,158 58,86" />
  <polygon fill="#f6f8fa" points="78,168 116,74 128,60 140,74 178,168 148,168 128,112 108,168" />
  <polygon fill="#35d9b8" points="96,182 116,154 140,154 160,182 142,194 128,176 114,194" />
</svg>
